<svg width="349" height="80" viewBox="0 0 349 80" fill="none" xmlns="http://www.w3.org/2000/svg">
<path d="M295.02 76.0754C294.353 76.4808 293.5 76.0011 293.5 75.2211L293.5 61C293.5 59.8954 294.395 59 295.5 59H305.5C306.605 59 307.5 59.8954 307.5 61V75.2211C307.5 76.0011 306.647 76.4808 305.98 76.0754L301.02 73.0574C300.7 72.8632 300.3 72.8632 299.98 73.0574L295.02 76.0754Z" stroke="black"/>
<path d="M259.167 60C257.694 60 256.5 61.1939 256.5 62.6667V64.8C256.5 70.9856 261.514 76 267.7 76H269.833C271.306 76 272.5 74.8061 272.5 73.3333V71.8592C272.5 71.2532 272.158 70.6992 271.616 70.4282L269.039 69.1397C268.168 68.7042 267.113 69.1411 266.805 70.0648L266.487 71.0176C266.367 71.3797 265.995 71.5952 265.621 71.5203C263.279 71.0519 261.448 69.221 260.98 66.8788C260.905 66.5046 261.12 66.1332 261.482 66.0125L262.665 65.6183C263.458 65.3539 263.914 64.5235 263.711 63.7124L263.086 61.2119C262.908 60.4997 262.268 60 261.534 60H259.167Z" stroke="black"/>
<path d="M228.5 2L228.825 1.62037C228.638 1.45988 228.362 1.45988 228.175 1.62037L228.5 2ZM225.643 22V22.5C225.919 22.5 226.143 22.2761 226.143 22H225.643ZM231.357 22H230.857C230.857 22.2761 231.081 22.5 231.357 22.5V22ZM238.5 20L238 20L238.5 20ZM237.802 9.97278L237.476 10.3524L237.802 9.97278ZM219.198 9.97279L219.524 10.3524L219.198 9.97279ZM220.5 22.5H225.643V21.5H220.5V22.5ZM238.127 9.59316L228.825 1.62037L228.175 2.37963L237.476 10.3524L238.127 9.59316ZM228.175 1.62037L218.873 9.59316L219.524 10.3524L228.825 2.37963L228.175 1.62037ZM226.143 22V17.7143H225.143V22H226.143ZM230.857 17.7143V22H231.857V17.7143H230.857ZM231.357 22.5H236.5V21.5H231.357V22.5ZM239 20L239 11.4913L238 11.4913L238 20L239 20ZM218 11.4913L218 20L219 20L219 11.4913L218 11.4913ZM228.5 15.3571C229.802 15.3571 230.857 16.4125 230.857 17.7143H231.857C231.857 15.8602 230.354 14.3571 228.5 14.3571V15.3571ZM228.5 14.3571C226.646 14.3571 225.143 15.8602 225.143 17.7143H226.143C226.143 16.4125 227.198 15.3571 228.5 15.3571V14.3571ZM236.5 22.5C237.881 22.5 239 21.3807 239 20L238 20C238 20.8284 237.328 21.5 236.5 21.5V22.5ZM220.5 21.5C219.672 21.5 219 20.8284 219 20L218 20C218 21.3807 219.119 22.5 220.5 22.5V21.5ZM237.476 10.3524C237.809 10.6374 238 11.0534 238 11.4913L239 11.4913C239 10.7615 238.681 10.0681 238.127 9.59316L237.476 10.3524ZM218.873 9.59316C218.319 10.0681 218 10.7615 218 11.4913L219 11.4913C219 11.0534 219.191 10.6374 219.524 10.3524L218.873 9.59316Z" fill="black"/>
<path d="M182.5 7H202.5" stroke="black" stroke-linecap="round"/>
<path d="M182.5 12H202.5" stroke="black" stroke-linecap="round"/>
<path d="M182.5 17H202.5" stroke="black" stroke-linecap="round"/>
<path d="M156.5 7L164.5 7" stroke="black" stroke-linecap="round"/>
<path d="M148.5 7L150.5 7" stroke="black" stroke-linecap="round"/>
<circle cx="152.5" cy="7" r="2" transform="rotate(90 152.5 7)" stroke="black" stroke-linecap="round"/>
<path d="M162.5 17L164.5 17" stroke="black" stroke-linecap="round"/>
<path d="M148.5 17L156.5 17" stroke="black" stroke-linecap="round"/>
<circle cx="160.5" cy="17" r="2" transform="rotate(90 160.5 17)" stroke="black" stroke-linecap="round"/>
<path d="M109.734 8.34023C109.546 8.13788 109.557 7.82151 109.76 7.63361C109.962 7.44571 110.278 7.45743 110.466 7.65978L109.734 8.34023ZM120.5 19.2L120.866 19.5402L120.5 19.9348L120.134 19.5402L120.5 19.2ZM130.534 7.65978C130.721 7.45743 131.038 7.44571 131.24 7.63361C131.442 7.82151 131.454 8.13788 131.266 8.34023L130.534 7.65978ZM110.466 7.65978L120.866 18.8598L120.134 19.5402L109.734 8.34023L110.466 7.65978ZM120.134 18.8598L130.534 7.65978L131.266 8.34023L120.866 19.5402L120.134 18.8598Z" fill="black"/>
<path fill-rule="evenodd" clip-rule="evenodd" d="M83.9986 2C80.6393 2 77.8536 4.65762 77.489 8.12029L77.2154 10.7187C77.1851 11.0065 77.1711 11.1391 77.1529 11.269C77.0289 12.1578 76.7545 13.0151 76.3434 13.8C76.2834 13.9146 76.2185 14.0288 76.0773 14.2773L75.451 15.3788L75.433 15.4104C75.1059 15.9856 74.8358 16.4607 74.6768 16.8511C74.5145 17.2497 74.418 17.6751 74.5937 18.0964C74.632 18.1883 74.6792 18.2763 74.7348 18.3589C74.9951 18.7457 75.4086 18.8829 75.826 18.9425C76.2298 19 76.7587 19 77.3914 19H77.4304H90.5668H90.6058C91.2385 19 91.7675 19 92.1712 18.9425C92.5886 18.8829 93.0021 18.7457 93.2624 18.3589C93.318 18.2763 93.3653 18.1883 93.4036 18.0964C93.5792 17.6751 93.4827 17.2497 93.3204 16.8511C93.1614 16.4607 92.8913 15.9856 92.5643 15.4104L92.5642 15.4104L92.5463 15.3788L91.92 14.2773C91.7787 14.0288 91.7139 13.9146 91.6538 13.8C91.2428 13.0151 90.9683 12.1578 90.8443 11.269C90.8262 11.1391 90.8121 11.0065 90.7818 10.7187L90.6988 9.93023C90.473 9.97598 90.2393 10 90 10C89.8987 10 89.7984 9.9957 89.6993 9.98726L89.7873 10.8234L89.7884 10.8338C89.8174 11.1085 89.8332 11.2586 89.8539 11.4072C89.9936 12.4086 90.303 13.3762 90.7679 14.2639C90.8369 14.3957 90.9107 14.5254 91.0454 14.7622L91.0507 14.7716L91.677 15.8731C92.0265 16.4879 92.263 16.9058 92.3943 17.2283C92.5252 17.5497 92.5016 17.6612 92.4806 17.7116C92.4674 17.7433 92.4513 17.7731 92.4328 17.8006C92.4103 17.8341 92.3494 17.9069 92.0301 17.9525C91.7054 17.9988 91.2488 18 90.5668 18H77.4304C76.7485 18 76.2918 17.9988 75.9672 17.9525C75.6478 17.9069 75.587 17.8341 75.5645 17.8006C75.5459 17.7731 75.5299 17.7433 75.5167 17.7116C75.4957 17.6612 75.4721 17.5497 75.603 17.2283C75.7343 16.9058 75.9707 16.4879 76.3203 15.8731L76.9466 14.7716L76.9519 14.7622C77.0865 14.5254 77.1603 14.3957 77.2293 14.2639C77.6942 13.3762 78.0036 12.4086 78.1433 11.4072C78.1641 11.2586 78.1799 11.1086 78.2088 10.8339L78.2099 10.8234L78.4835 8.225C78.799 5.229 81.1925 3 83.9986 3C85.2507 3 86.4206 3.44377 87.3605 4.20145C87.5833 3.94578 87.8427 3.72279 88.1305 3.54061C87.0017 2.57582 85.5623 2 83.9986 2ZM88.8636 4.2726C88.5626 4.42648 88.2969 4.63958 88.0819 4.89653C88.8561 5.78568 89.3778 6.93414 89.5137 8.225L89.5919 8.96685C89.7247 8.98866 89.861 9 90 9C90.2045 9 90.4032 8.97545 90.5934 8.92915L90.5082 8.12028C90.3527 6.64334 89.7567 5.31286 88.8636 4.2726Z" fill="black"/>
<path d="M82.5681 21.6294C82.6821 21.7357 82.9332 21.8297 83.2825 21.8967C83.6318 21.9637 84.0597 22 84.5 22C84.9403 22 85.3682 21.9637 85.7175 21.8967C86.0668 21.8297 86.3179 21.7357 86.4319 21.6294" stroke="black" stroke-linecap="round"/>
<circle cx="90" cy="6.5" r="2.5" fill="#27AE61"/>
<path d="M2.5 22H3.83333V16.6667H21.1667V22H22.5V7.33333H21.1667V11.3333H3.83333V2H2.5V22Z" fill="black"/>
<path d="M10.5 10H5.16667V8.66667H10.5V10Z" fill="black"/>
<path d="M41.1667 6.66667C41.1667 4.82572 42.6591 3.33333 44.5 3.33333H46.5V4.66667H47.8333V2H44.5C41.9227 2 39.8333 4.08934 39.8333 6.66667V11.3333H38.5V12.6667H39.8333V14.6667C39.8333 17.0176 41.5718 18.9626 43.8333 19.2861V22H45.1667V19.3333H51.8333V22H53.1667V19.2861C55.4282 18.9626 57.1667 17.0176 57.1667 14.6667V12.6667H58.5V11.3333H41.1667V6.66667Z" fill="black"/>
<path d="M49.1667 7.33333H45.1667V6H49.1667V7.33333Z" fill="black"/>
<path d="M229.996 64.925C230.192 64.7297 230.192 64.4131 229.996 64.2179C229.801 64.0226 229.485 64.0226 229.289 64.2179L229.996 64.925ZM226.214 68L225.861 67.6464L225.507 68L225.861 68.3536L226.214 68ZM229.289 71.7821C229.485 71.9774 229.801 71.9774 229.996 71.7821C230.192 71.5869 230.192 71.2703 229.996 71.075L229.289 71.7821ZM229.289 64.2179L225.861 67.6464L226.568 68.3536L229.996 64.925L229.289 64.2179ZM225.861 68.3536L229.289 71.7821L229.996 71.075L226.568 67.6464L225.861 68.3536ZM228.5 75.5C224.358 75.5 221 72.1421 221 68H220C220 72.6944 223.806 76.5 228.5 76.5V75.5ZM236 68C236 72.1421 232.642 75.5 228.5 75.5V76.5C233.194 76.5 237 72.6944 237 68H236ZM228.5 60.5C232.642 60.5 236 63.8579 236 68H237C237 63.3056 233.194 59.5 228.5 59.5V60.5ZM228.5 59.5C223.806 59.5 220 63.3056 220 68H221C221 63.8579 224.358 60.5 228.5 60.5V59.5Z" fill="black"/>
<path d="M273.5 21C272.969 19.5656 271.799 18.2981 270.172 17.394C268.545 16.49 266.551 16 264.5 16C262.449 16 260.455 16.49 258.828 17.394C257.201 18.2981 256.031 19.5656 255.5 21" stroke="black" stroke-linecap="round"/>
<circle cx="264.5" cy="7" r="5" stroke="black" stroke-linecap="round"/>
<path fill-rule="evenodd" clip-rule="evenodd" d="M48.5 69.4286C50.156 69.4286 51.5 68.1485 51.5 66.5714C51.5 64.9942 50.156 63.7143 48.5 63.7143C46.844 63.7143 45.5 64.9942 45.5 66.5714C45.5 68.1485 46.844 69.4286 48.5 69.4286Z" stroke="black" stroke-linecap="square"/>
<path fill-rule="evenodd" clip-rule="evenodd" d="M57.5 66.5714C57.5 73.7142 50 78 48.5 78C47 78 39.5 73.7142 39.5 66.5714C39.5 61.8385 43.5305 58 48.5 58C53.4695 58 57.5 61.8385 57.5 66.5714Z" stroke="black" stroke-linecap="square"/>
<path d="M152 67.4935H151.5V68.4935H152V67.4935ZM161 68.4935H161.5V67.4935H161V68.4935ZM152.001 71.7764L151.501 71.7759L151.499 72.7759L151.999 72.7764L152.001 71.7764ZM160.999 72.7857L161.499 72.7862L161.501 71.7862L161.001 71.7857L160.999 72.7857ZM152 63.2105L151.5 63.2102L151.5 64.2102L152 64.2105L152 63.2105ZM158 64.2143L158.5 64.2146L158.5 63.2146L158 63.2143L158 64.2143ZM161 58L161.345 57.6379L161.2 57.5H161V58ZM165.5 62.2857H166V62.0714L165.845 61.9236L165.5 62.2857ZM152 68.4935H161V67.4935H152V68.4935ZM151.999 72.7764L160.999 72.7857L161.001 71.7857L152.001 71.7764L151.999 72.7764ZM152 64.2105L158 64.2143L158 63.2143L152 63.2105L152 64.2105ZM164 77.5H149V78.5H164V77.5ZM148 76.5714V59.4286H147V76.5714H148ZM149 58.5H161V57.5H149V58.5ZM165 62.2857V76.5714H166V62.2857H165ZM160.655 58.3621L165.155 62.6478L165.845 61.9236L161.345 57.6379L160.655 58.3621ZM149 77.5C148.424 77.5 148 77.0616 148 76.5714H147C147 77.6593 147.919 78.5 149 78.5V77.5ZM164 78.5C165.081 78.5 166 77.6593 166 76.5714H165C165 77.0616 164.576 77.5 164 77.5V78.5ZM148 59.4286C148 58.9384 148.424 58.5 149 58.5V57.5C147.919 57.5 147 58.3407 147 59.4286H148Z" fill="black"/>
<path d="M331.07 7.28614C331.349 4.28526 333.696 2 336.5 2C339.304 2 341.651 4.28525 341.93 7.28613L342.213 10.3314C342.231 10.5166 342.239 10.6092 342.249 10.7003C342.392 11.9575 342.794 13.1645 343.425 14.2331C343.471 14.3106 343.519 14.388 343.615 14.5429L344.466 15.9153C345.242 17.1685 345.631 17.7951 345.46 18.3001C345.428 18.3956 345.383 18.4856 345.327 18.5674C345.031 19 344.331 19 342.931 19H330.069C328.669 19 327.969 19 327.673 18.5674C327.617 18.4856 327.572 18.3956 327.54 18.3001C327.369 17.7951 327.758 17.1685 328.534 15.9153L329.385 14.5429C329.481 14.388 329.529 14.3106 329.575 14.2331C330.206 13.1645 330.608 11.9575 330.751 10.7003C330.761 10.6092 330.769 10.5166 330.787 10.3314L331.07 7.28614Z" stroke="black"/>
<path d="M334.568 21.6294C334.682 21.7357 334.933 21.8297 335.282 21.8967C335.632 21.9637 336.06 22 336.5 22C336.94 22 337.368 21.9637 337.718 21.8967C338.067 21.8297 338.318 21.7357 338.432 21.6294" stroke="black" stroke-linecap="round"/>
<path d="M121.214 68H119.786M125.5 68H124.071M116.929 68H115.5M110.5 78H120.5C126.023 78 130.5 73.5228 130.5 68C130.5 62.4772 126.023 58 120.5 58C114.977 58 110.5 62.4772 110.5 68V78Z" stroke="black"/>
<path fill-rule="evenodd" clip-rule="evenodd" d="M302.484 2.54161C302.571 2.71093 302.593 2.92777 302.636 3.36144C302.718 4.1823 302.759 4.59274 302.931 4.81793C303.149 5.10358 303.503 5.25038 303.859 5.20248C304.14 5.16472 304.459 4.90352 305.098 4.38113C305.435 4.10515 305.604 3.96716 305.785 3.90918C306.016 3.83555 306.265 3.84798 306.487 3.94419C306.662 4.01994 306.816 4.17402 307.124 4.4822L308.018 5.37567C308.326 5.68385 308.48 5.83794 308.556 6.01275C308.652 6.23478 308.664 6.48415 308.591 6.71464C308.533 6.89612 308.395 7.06478 308.119 7.4021C307.596 8.0406 307.335 8.35984 307.297 8.64056C307.25 8.99662 307.396 9.35102 307.682 9.56893C307.907 9.74072 308.318 9.78176 309.139 9.86385C309.572 9.90722 309.789 9.92891 309.958 10.0162C310.173 10.1272 310.341 10.3123 310.43 10.5373C310.5 10.7145 310.5 10.9324 310.5 11.3682V12.6319C310.5 13.0676 310.5 13.2855 310.43 13.4626C310.341 13.6877 310.173 13.8729 309.958 13.9838C309.789 14.0711 309.572 14.0928 309.139 14.1361C308.318 14.2182 307.908 14.2592 307.683 14.4309C307.397 14.6489 307.25 15.0034 307.298 15.3596C307.336 15.6402 307.597 15.9593 308.119 16.5976C308.395 16.9348 308.533 17.1034 308.591 17.2848C308.664 17.5154 308.652 17.7648 308.556 17.9869C308.48 18.1617 308.326 18.3157 308.018 18.6238L307.124 19.5174C306.816 19.8255 306.662 19.9796 306.487 20.0554C306.265 20.1516 306.016 20.164 305.785 20.0904C305.604 20.0324 305.435 19.8944 305.098 19.6184C304.459 19.096 304.14 18.8348 303.859 18.7971C303.503 18.7492 303.149 18.896 302.931 19.1816C302.759 19.4068 302.718 19.8173 302.636 20.6383C302.593 21.0722 302.571 21.2891 302.484 21.4585C302.373 21.6735 302.188 21.8409 301.963 21.9299C301.786 22 301.568 22 301.132 22H299.868C299.432 22 299.214 22 299.037 21.9299C298.812 21.841 298.627 21.6734 298.516 21.4584C298.429 21.2891 298.407 21.0722 298.364 20.6385C298.282 19.8176 298.241 19.4072 298.069 19.182C297.851 18.8964 297.497 18.7496 297.141 18.7975C296.86 18.8352 296.541 19.0964 295.902 19.6189C295.565 19.8949 295.396 20.0329 295.215 20.0908C294.984 20.1645 294.735 20.152 294.513 20.0558C294.338 19.9801 294.184 19.826 293.876 19.5178L292.982 18.6243C292.674 18.3162 292.52 18.1621 292.444 17.9873C292.348 17.7652 292.336 17.5159 292.409 17.2854C292.467 17.1039 292.605 16.9352 292.881 16.5979C293.404 15.9594 293.665 15.6402 293.702 15.3594C293.75 15.0034 293.604 14.649 293.318 14.4311C293.093 14.2593 292.682 14.2182 291.861 14.1361C291.428 14.0928 291.211 14.0711 291.042 13.9838C290.827 13.8728 290.659 13.6877 290.57 13.4627C290.5 13.2855 290.5 13.0676 290.5 12.6318V11.3683C290.5 10.9324 290.5 10.7144 290.57 10.5372C290.659 10.3123 290.827 10.1272 291.042 10.0163C291.211 9.92891 291.428 9.90722 291.862 9.86384C292.683 9.78173 293.093 9.74068 293.318 9.56881C293.604 9.35092 293.751 8.99664 293.703 8.64066C293.665 8.35987 293.404 8.04052 292.881 7.40182C292.605 7.06435 292.467 6.89561 292.409 6.71405C292.336 6.48364 292.348 6.23438 292.444 6.01243C292.52 5.83754 292.674 5.68339 292.982 5.37509L293.876 4.48177C294.184 4.17357 294.338 4.01947 294.513 3.94373C294.735 3.84753 294.984 3.8351 295.215 3.90872C295.396 3.9667 295.565 4.10472 295.902 4.38076C296.541 4.9031 296.86 5.16427 297.14 5.20207C297.497 5.25003 297.851 5.10319 298.069 4.81742C298.241 4.59227 298.282 4.18195 298.364 3.36131C298.407 2.92776 298.429 2.71098 298.516 2.5417C298.627 2.32658 298.812 2.15898 299.037 2.07001C299.215 2 299.432 2 299.868 2H301.132C301.568 2 301.786 2 301.963 2.07005C302.188 2.15902 302.373 2.32656 302.484 2.54161ZM300.5 16C302.709 16 304.5 14.2091 304.5 12C304.5 9.79086 302.709 8 300.5 8C298.291 8 296.5 9.79086 296.5 12C296.5 14.2091 298.291 16 300.5 16Z" stroke="black"/>
<path d="M80.2143 72.2857L79.7671 72.0621C79.6708 72.2546 79.7086 72.4871 79.8607 72.6393C80.0129 72.7914 80.2454 72.8292 80.4379 72.7329L80.2143 72.2857ZM83.0714 66.5714L82.8478 66.1242C82.7511 66.1726 82.6726 66.2511 82.6242 66.3478L83.0714 66.5714ZM88.7857 63.7143L89.2329 63.9379C89.3292 63.7454 89.2914 63.5129 89.1393 63.3607C88.9871 63.2086 88.7546 63.1708 88.5621 63.2671L88.7857 63.7143ZM85.9286 69.4286L86.1522 69.8758C86.2489 69.8274 86.3274 69.7489 86.3758 69.6522L85.9286 69.4286ZM84.5 77.5C79.2533 77.5 75 73.2467 75 68H74C74 73.799 78.701 78.5 84.5 78.5V77.5ZM94 68C94 73.2467 89.7467 77.5 84.5 77.5V78.5C90.299 78.5 95 73.799 95 68H94ZM84.5 58.5C89.7467 58.5 94 62.7533 94 68H95C95 62.201 90.299 57.5 84.5 57.5V58.5ZM84.5 57.5C78.701 57.5 74 62.201 74 68H75C75 62.7533 79.2533 58.5 84.5 58.5V57.5ZM80.6615 72.5093L83.5186 66.795L82.6242 66.3478L79.7671 72.0621L80.6615 72.5093ZM83.295 67.0186L89.0093 64.1615L88.5621 63.2671L82.8478 66.1242L83.295 67.0186ZM88.3385 63.4907L85.4814 69.205L86.3758 69.6522L89.2329 63.9379L88.3385 63.4907ZM85.705 68.9814L79.9907 71.8385L80.4379 72.7329L86.1522 69.8758L85.705 68.9814Z" fill="black"/>
<path d="M202.1 68L202.467 68.3391C202.649 68.1419 202.643 67.8362 202.454 67.6464L202.1 68ZM196.933 72.8609C196.745 73.0638 196.758 73.3801 196.961 73.5674C197.164 73.7547 197.48 73.7421 197.667 73.5391L196.933 72.8609ZM197.654 62.8464C197.458 62.6512 197.142 62.6512 196.946 62.8464C196.751 63.0417 196.751 63.3583 196.946 63.5536L197.654 62.8464ZM186.9 67.5C186.624 67.5 186.4 67.7239 186.4 68C186.4 68.2761 186.624 68.5 186.9 68.5L186.9 67.5ZM182.9 58.4L182.9 57.9L182.4 57.9L182.4 58.4L182.9 58.4ZM182.9 77.6L182.4 77.6L182.4 78.1L182.9 78.1L182.9 77.6ZM193.3 78.1C193.576 78.1 193.8 77.8761 193.8 77.6C193.8 77.3239 193.576 77.1 193.3 77.1L193.3 78.1ZM193.3 58.9C193.576 58.9 193.8 58.6761 193.8 58.4C193.8 58.1239 193.576 57.9 193.3 57.9L193.3 58.9ZM201.733 67.6609L196.933 72.8609L197.667 73.5391L202.467 68.3391L201.733 67.6609ZM202.454 67.6464L197.654 62.8464L196.946 63.5536L201.746 68.3536L202.454 67.6464ZM202.1 67.5L186.9 67.5L186.9 68.5L202.1 68.5L202.1 67.5ZM182.4 58.4L182.4 77.6L183.4 77.6L183.4 58.4L182.4 58.4ZM182.9 78.1L193.3 78.1L193.3 77.1L182.9 77.1L182.9 78.1ZM182.9 58.9L193.3 58.9L193.3 57.9L182.9 57.9L182.9 58.9Z" fill="black"/>
</svg>
